<svg xmlns="http://www.w3.org/2000/svg" xmlns:xlink="http://www.w3.org/1999/xlink" width="500" zoomAndPan="magnify" viewBox="0 0 375 374.999991" height="500" preserveAspectRatio="xMidYMid meet" version="1.0"><defs><clipPath id="0045fb79d1"><path d="M 22.03125 0 L 304 0 L 304 375 L 22.03125 375 Z M 22.03125 0 " clip-rule="nonzero"/></clipPath></defs><path fill="#000000" d="M 271.292969 41.015625 C 271.292969 41.398438 271.257812 41.78125 271.183594 42.160156 C 271.105469 42.535156 270.996094 42.902344 270.847656 43.257812 C 270.703125 43.613281 270.519531 43.949219 270.308594 44.269531 C 270.09375 44.589844 269.851562 44.886719 269.578125 45.160156 C 269.308594 45.429688 269.011719 45.671875 268.691406 45.886719 C 268.371094 46.101562 268.035156 46.28125 267.679688 46.429688 C 267.324219 46.578125 266.957031 46.6875 266.582031 46.761719 C 266.203125 46.835938 265.824219 46.875 265.4375 46.875 C 265.054688 46.875 264.671875 46.835938 264.296875 46.761719 C 263.917969 46.6875 263.550781 46.578125 263.195312 46.429688 C 262.84375 46.28125 262.503906 46.101562 262.183594 45.886719 C 261.863281 45.671875 261.570312 45.429688 261.296875 45.160156 C 261.027344 44.886719 260.78125 44.589844 260.570312 44.269531 C 260.355469 43.949219 260.175781 43.613281 260.027344 43.257812 C 259.878906 42.902344 259.769531 42.535156 259.695312 42.160156 C 259.621094 41.78125 259.582031 41.398438 259.582031 41.015625 C 259.582031 40.632812 259.621094 40.25 259.695312 39.871094 C 259.769531 39.496094 259.878906 39.128906 260.027344 38.773438 C 260.175781 38.417969 260.355469 38.082031 260.570312 37.761719 C 260.78125 37.441406 261.027344 37.144531 261.296875 36.871094 C 261.570312 36.601562 261.863281 36.359375 262.183594 36.144531 C 262.503906 35.929688 262.84375 35.75 263.195312 35.601562 C 263.550781 35.453125 263.917969 35.34375 264.296875 35.269531 C 264.671875 35.195312 265.054688 35.15625 265.4375 35.15625 C 265.824219 35.15625 266.203125 35.195312 266.582031 35.269531 C 266.957031 35.34375 267.324219 35.453125 267.679688 35.601562 C 268.035156 35.75 268.371094 35.929688 268.691406 36.144531 C 269.011719 36.359375 269.308594 36.601562 269.578125 36.871094 C 269.851562 37.144531 270.09375 37.441406 270.308594 37.761719 C 270.519531 38.082031 270.703125 38.417969 270.847656 38.773438 C 270.996094 39.128906 271.105469 39.496094 271.183594 39.871094 C 271.257812 40.25 271.292969 40.632812 271.292969 41.015625 Z M 271.292969 41.015625 " fill-opacity="1" fill-rule="nonzero"/><path fill="#000000" d="M 242.015625 41.015625 C 242.015625 41.398438 241.976562 41.78125 241.902344 42.160156 C 241.828125 42.535156 241.714844 42.902344 241.566406 43.257812 C 241.421875 43.613281 241.242188 43.949219 241.027344 44.269531 C 240.8125 44.589844 240.570312 44.886719 240.296875 45.160156 C 240.027344 45.429688 239.730469 45.671875 239.410156 45.886719 C 239.089844 46.101562 238.753906 46.28125 238.398438 46.429688 C 238.042969 46.578125 237.675781 46.6875 237.300781 46.761719 C 236.921875 46.835938 236.542969 46.875 236.15625 46.875 C 235.773438 46.875 235.390625 46.835938 235.015625 46.761719 C 234.636719 46.6875 234.273438 46.578125 233.917969 46.429688 C 233.5625 46.28125 233.222656 46.101562 232.90625 45.886719 C 232.585938 45.671875 232.289062 45.429688 232.015625 45.160156 C 231.746094 44.886719 231.503906 44.589844 231.289062 44.269531 C 231.074219 43.949219 230.894531 43.613281 230.746094 43.257812 C 230.601562 42.902344 230.488281 42.535156 230.414062 42.160156 C 230.339844 41.78125 230.300781 41.398438 230.300781 41.015625 C 230.300781 40.632812 230.339844 40.25 230.414062 39.871094 C 230.488281 39.496094 230.601562 39.128906 230.746094 38.773438 C 230.894531 38.417969 231.074219 38.082031 231.289062 37.761719 C 231.503906 37.441406 231.746094 37.144531 232.015625 36.871094 C 232.289062 36.601562 232.585938 36.359375 232.90625 36.144531 C 233.222656 35.929688 233.5625 35.75 233.917969 35.601562 C 234.273438 35.453125 234.636719 35.34375 235.015625 35.269531 C 235.390625 35.195312 235.773438 35.15625 236.15625 35.15625 C 236.542969 35.15625 236.921875 35.195312 237.300781 35.269531 C 237.675781 35.34375 238.042969 35.453125 238.398438 35.601562 C 238.753906 35.75 239.089844 35.929688 239.410156 36.144531 C 239.730469 36.359375 240.027344 36.601562 240.296875 36.871094 C 240.570312 37.144531 240.8125 37.441406 241.027344 37.761719 C 241.242188 38.082031 241.421875 38.417969 241.566406 38.773438 C 241.714844 39.128906 241.828125 39.496094 241.902344 39.871094 C 241.976562 40.25 242.015625 40.632812 242.015625 41.015625 Z M 242.015625 41.015625 " fill-opacity="1" fill-rule="nonzero"/><path fill="#000000" d="M 212.734375 41.015625 C 212.734375 41.398438 212.695312 41.78125 212.621094 42.160156 C 212.546875 42.535156 212.433594 42.902344 212.289062 43.257812 C 212.140625 43.613281 211.960938 43.949219 211.746094 44.269531 C 211.53125 44.589844 211.289062 44.886719 211.019531 45.160156 C 210.746094 45.429688 210.449219 45.671875 210.132812 45.886719 C 209.8125 46.101562 209.472656 46.28125 209.117188 46.429688 C 208.761719 46.578125 208.398438 46.6875 208.019531 46.761719 C 207.644531 46.835938 207.261719 46.875 206.878906 46.875 C 206.492188 46.875 206.113281 46.835938 205.734375 46.761719 C 205.359375 46.6875 204.992188 46.578125 204.636719 46.429688 C 204.28125 46.28125 203.945312 46.101562 203.625 45.886719 C 203.304688 45.671875 203.007812 45.429688 202.738281 45.160156 C 202.464844 44.886719 202.222656 44.589844 202.007812 44.269531 C 201.792969 43.949219 201.613281 43.613281 201.46875 43.257812 C 201.320312 42.902344 201.210938 42.535156 201.132812 42.160156 C 201.058594 41.78125 201.023438 41.398438 201.023438 41.015625 C 201.023438 40.632812 201.058594 40.25 201.132812 39.871094 C 201.210938 39.496094 201.320312 39.128906 201.46875 38.773438 C 201.613281 38.417969 201.792969 38.082031 202.007812 37.761719 C 202.222656 37.441406 202.464844 37.144531 202.738281 36.871094 C 203.007812 36.601562 203.304688 36.359375 203.625 36.144531 C 203.945312 35.929688 204.28125 35.75 204.636719 35.601562 C 204.992188 35.453125 205.359375 35.34375 205.734375 35.269531 C 206.113281 35.195312 206.492188 35.15625 206.878906 35.15625 C 207.261719 35.15625 207.644531 35.195312 208.019531 35.269531 C 208.398438 35.34375 208.761719 35.453125 209.117188 35.601562 C 209.472656 35.75 209.8125 35.929688 210.132812 36.144531 C 210.449219 36.359375 210.746094 36.601562 211.019531 36.871094 C 211.289062 37.144531 211.53125 37.441406 211.746094 37.761719 C 211.960938 38.082031 212.140625 38.417969 212.289062 38.773438 C 212.433594 39.128906 212.546875 39.496094 212.621094 39.871094 C 212.695312 40.25 212.734375 40.632812 212.734375 41.015625 Z M 212.734375 41.015625 " fill-opacity="1" fill-rule="nonzero"/><path fill="#000000" d="M 183.453125 41.015625 C 183.453125 41.398438 183.414062 41.78125 183.339844 42.160156 C 183.265625 42.535156 183.15625 42.902344 183.007812 43.257812 C 182.859375 43.613281 182.679688 43.949219 182.464844 44.269531 C 182.253906 44.589844 182.011719 44.886719 181.738281 45.160156 C 181.464844 45.429688 181.171875 45.671875 180.851562 45.886719 C 180.53125 46.101562 180.195312 46.28125 179.839844 46.429688 C 179.484375 46.578125 179.117188 46.6875 178.738281 46.761719 C 178.363281 46.835938 177.980469 46.875 177.597656 46.875 C 177.210938 46.875 176.832031 46.835938 176.453125 46.761719 C 176.078125 46.6875 175.710938 46.578125 175.355469 46.429688 C 175 46.28125 174.664062 46.101562 174.34375 45.886719 C 174.023438 45.671875 173.726562 45.429688 173.457031 45.160156 C 173.183594 44.886719 172.941406 44.589844 172.726562 44.269531 C 172.515625 43.949219 172.335938 43.613281 172.1875 43.257812 C 172.039062 42.902344 171.929688 42.535156 171.855469 42.160156 C 171.777344 41.78125 171.742188 41.398438 171.742188 41.015625 C 171.742188 40.632812 171.777344 40.25 171.855469 39.871094 C 171.929688 39.496094 172.039062 39.128906 172.1875 38.773438 C 172.335938 38.417969 172.515625 38.082031 172.726562 37.761719 C 172.941406 37.441406 173.183594 37.144531 173.457031 36.871094 C 173.726562 36.601562 174.023438 36.359375 174.34375 36.144531 C 174.664062 35.929688 175 35.75 175.355469 35.601562 C 175.710938 35.453125 176.078125 35.34375 176.453125 35.269531 C 176.832031 35.195312 177.210938 35.15625 177.597656 35.15625 C 177.980469 35.15625 178.363281 35.195312 178.738281 35.269531 C 179.117188 35.34375 179.484375 35.453125 179.839844 35.601562 C 180.195312 35.75 180.53125 35.929688 180.851562 36.144531 C 181.171875 36.359375 181.464844 36.601562 181.738281 36.871094 C 182.011719 37.144531 182.253906 37.441406 182.464844 37.761719 C 182.679688 38.082031 182.859375 38.417969 183.007812 38.773438 C 183.15625 39.128906 183.265625 39.496094 183.339844 39.871094 C 183.414062 40.25 183.453125 40.632812 183.453125 41.015625 Z M 183.453125 41.015625 " fill-opacity="1" fill-rule="nonzero"/><path fill="#000000" d="M 154.171875 41.015625 C 154.171875 41.398438 154.136719 41.78125 154.0625 42.160156 C 153.984375 42.535156 153.875 42.902344 153.726562 43.257812 C 153.582031 43.613281 153.398438 43.949219 153.1875 44.269531 C 152.972656 44.589844 152.730469 44.886719 152.457031 45.160156 C 152.1875 45.429688 151.890625 45.671875 151.570312 45.886719 C 151.25 46.101562 150.914062 46.28125 150.558594 46.429688 C 150.203125 46.578125 149.835938 46.6875 149.460938 46.761719 C 149.082031 46.835938 148.703125 46.875 148.316406 46.875 C 147.933594 46.875 147.550781 46.835938 147.175781 46.761719 C 146.796875 46.6875 146.429688 46.578125 146.074219 46.429688 C 145.722656 46.28125 145.382812 46.101562 145.0625 45.886719 C 144.742188 45.671875 144.449219 45.429688 144.175781 45.160156 C 143.90625 44.886719 143.660156 44.589844 143.449219 44.269531 C 143.234375 43.949219 143.054688 43.613281 142.90625 43.257812 C 142.757812 42.902344 142.648438 42.535156 142.574219 42.160156 C 142.5 41.78125 142.460938 41.398438 142.460938 41.015625 C 142.460938 40.632812 142.5 40.25 142.574219 39.871094 C 142.648438 39.496094 142.757812 39.128906 142.90625 38.773438 C 143.054688 38.417969 143.234375 38.082031 143.449219 37.761719 C 143.660156 37.441406 143.90625 37.144531 144.175781 36.871094 C 144.449219 36.601562 144.742188 36.359375 145.0625 36.144531 C 145.382812 35.929688 145.722656 35.75 146.074219 35.601562 C 146.429688 35.453125 146.796875 35.34375 147.175781 35.269531 C 147.550781 35.195312 147.933594 35.15625 148.316406 35.15625 C 148.703125 35.15625 149.082031 35.195312 149.460938 35.269531 C 149.835938 35.34375 150.203125 35.453125 150.558594 35.601562 C 150.914062 35.75 151.25 35.929688 151.570312 36.144531 C 151.890625 36.359375 152.1875 36.601562 152.457031 36.871094 C 152.730469 37.144531 152.972656 37.441406 153.1875 37.761719 C 153.398438 38.082031 153.582031 38.417969 153.726562 38.773438 C 153.875 39.128906 153.984375 39.496094 154.0625 39.871094 C 154.136719 40.25 154.171875 40.632812 154.171875 41.015625 Z M 154.171875 41.015625 " fill-opacity="1" fill-rule="nonzero"/><path fill="#000000" d="M 124.894531 41.015625 C 124.894531 41.398438 124.855469 41.78125 124.78125 42.160156 C 124.707031 42.535156 124.59375 42.902344 124.445312 43.257812 C 124.300781 43.613281 124.121094 43.949219 123.90625 44.269531 C 123.691406 44.589844 123.449219 44.886719 123.175781 45.160156 C 122.90625 45.429688 122.609375 45.671875 122.289062 45.886719 C 121.96875 46.101562 121.632812 46.28125 121.277344 46.429688 C 120.921875 46.578125 120.554688 46.6875 120.179688 46.761719 C 119.800781 46.835938 119.421875 46.875 119.035156 46.875 C 118.652344 46.875 118.269531 46.835938 117.894531 46.761719 C 117.515625 46.6875 117.152344 46.578125 116.796875 46.429688 C 116.441406 46.28125 116.101562 46.101562 115.785156 45.886719 C 115.464844 45.671875 115.167969 45.429688 114.894531 45.160156 C 114.625 44.886719 114.382812 44.589844 114.167969 44.269531 C 113.953125 43.949219 113.773438 43.613281 113.625 43.257812 C 113.480469 42.902344 113.367188 42.535156 113.292969 42.160156 C 113.21875 41.78125 113.179688 41.398438 113.179688 41.015625 C 113.179688 40.632812 113.21875 40.25 113.292969 39.871094 C 113.367188 39.496094 113.480469 39.128906 113.625 38.773438 C 113.773438 38.417969 113.953125 38.082031 114.167969 37.761719 C 114.382812 37.441406 114.625 37.144531 114.894531 36.871094 C 115.167969 36.601562 115.464844 36.359375 115.785156 36.144531 C 116.101562 35.929688 116.441406 35.75 116.796875 35.601562 C 117.152344 35.453125 117.515625 35.34375 117.894531 35.269531 C 118.269531 35.195312 118.652344 35.15625 119.035156 35.15625 C 119.421875 35.15625 119.800781 35.195312 120.179688 35.269531 C 120.554688 35.34375 120.921875 35.453125 121.277344 35.601562 C 121.632812 35.75 121.96875 35.929688 122.289062 36.144531 C 122.609375 36.359375 122.90625 36.601562 123.175781 36.871094 C 123.449219 37.144531 123.691406 37.441406 123.90625 37.761719 C 124.121094 38.082031 124.300781 38.417969 124.445312 38.773438 C 124.59375 39.128906 124.707031 39.496094 124.78125 39.871094 C 124.855469 40.25 124.894531 40.632812 124.894531 41.015625 Z M 124.894531 41.015625 " fill-opacity="1" fill-rule="nonzero"/><path fill="#000000" d="M 95.613281 41.015625 C 95.613281 41.398438 95.574219 41.78125 95.5 42.160156 C 95.425781 42.535156 95.3125 42.902344 95.167969 43.257812 C 95.019531 43.613281 94.839844 43.949219 94.625 44.269531 C 94.410156 44.589844 94.167969 44.886719 93.898438 45.160156 C 93.625 45.429688 93.328125 45.671875 93.011719 45.886719 C 92.691406 46.101562 92.351562 46.28125 91.996094 46.429688 C 91.640625 46.578125 91.277344 46.6875 90.898438 46.761719 C 90.523438 46.835938 90.140625 46.875 89.757812 46.875 C 89.371094 46.875 88.992188 46.835938 88.613281 46.761719 C 88.238281 46.6875 87.871094 46.578125 87.515625 46.429688 C 87.160156 46.28125 86.824219 46.101562 86.503906 45.886719 C 86.183594 45.671875 85.886719 45.429688 85.617188 45.160156 C 85.34375 44.886719 85.101562 44.589844 84.886719 44.269531 C 84.671875 43.949219 84.492188 43.613281 84.347656 43.257812 C 84.199219 42.902344 84.089844 42.535156 84.011719 42.160156 C 83.9375 41.78125 83.902344 41.398438 83.902344 41.015625 C 83.902344 40.632812 83.9375 40.25 84.011719 39.871094 C 84.089844 39.496094 84.199219 39.128906 84.347656 38.773438 C 84.492188 38.417969 84.671875 38.082031 84.886719 37.761719 C 85.101562 37.441406 85.34375 37.144531 85.617188 36.871094 C 85.886719 36.601562 86.183594 36.359375 86.503906 36.144531 C 86.824219 35.929688 87.160156 35.75 87.515625 35.601562 C 87.871094 35.453125 88.238281 35.34375 88.613281 35.269531 C 88.992188 35.195312 89.371094 35.15625 89.757812 35.15625 C 90.140625 35.15625 90.523438 35.195312 90.898438 35.269531 C 91.277344 35.34375 91.640625 35.453125 91.996094 35.601562 C 92.351562 35.75 92.691406 35.929688 93.011719 36.144531 C 93.328125 36.359375 93.625 36.601562 93.898438 36.871094 C 94.167969 37.144531 94.410156 37.441406 94.625 37.761719 C 94.839844 38.082031 95.019531 38.417969 95.167969 38.773438 C 95.3125 39.128906 95.425781 39.496094 95.5 39.871094 C 95.574219 40.25 95.613281 40.632812 95.613281 41.015625 Z M 95.613281 41.015625 " fill-opacity="1" fill-rule="nonzero"/><path fill="#000000" d="M 66.332031 41.015625 C 66.332031 41.398438 66.292969 41.78125 66.21875 42.160156 C 66.144531 42.535156 66.035156 42.902344 65.886719 43.257812 C 65.738281 43.613281 65.558594 43.949219 65.34375 44.269531 C 65.132812 44.589844 64.890625 44.886719 64.617188 45.160156 C 64.34375 45.429688 64.050781 45.671875 63.730469 45.886719 C 63.410156 46.101562 63.074219 46.28125 62.71875 46.429688 C 62.363281 46.578125 61.996094 46.6875 61.617188 46.761719 C 61.242188 46.835938 60.859375 46.875 60.476562 46.875 C 60.089844 46.875 59.710938 46.835938 59.332031 46.761719 C 58.957031 46.6875 58.589844 46.578125 58.234375 46.429688 C 57.878906 46.28125 57.542969 46.101562 57.222656 45.886719 C 56.902344 45.671875 56.605469 45.429688 56.335938 45.160156 C 56.0625 44.886719 55.820312 44.589844 55.605469 44.269531 C 55.394531 43.949219 55.214844 43.613281 55.066406 43.257812 C 54.917969 42.902344 54.808594 42.535156 54.734375 42.160156 C 54.65625 41.78125 54.621094 41.398438 54.621094 41.015625 C 54.621094 40.632812 54.65625 40.25 54.734375 39.871094 C 54.808594 39.496094 54.917969 39.128906 55.066406 38.773438 C 55.214844 38.417969 55.394531 38.082031 55.605469 37.761719 C 55.820312 37.441406 56.0625 37.144531 56.335938 36.871094 C 56.605469 36.601562 56.902344 36.359375 57.222656 36.144531 C 57.542969 35.929688 57.878906 35.75 58.234375 35.601562 C 58.589844 35.453125 58.957031 35.34375 59.332031 35.269531 C 59.710938 35.195312 60.089844 35.15625 60.476562 35.15625 C 60.859375 35.15625 61.242188 35.195312 61.617188 35.269531 C 61.996094 35.34375 62.363281 35.453125 62.71875 35.601562 C 63.074219 35.75 63.410156 35.929688 63.730469 36.144531 C 64.050781 36.359375 64.34375 36.601562 64.617188 36.871094 C 64.890625 37.144531 65.132812 37.441406 65.34375 37.761719 C 65.558594 38.082031 65.738281 38.417969 65.886719 38.773438 C 66.035156 39.128906 66.144531 39.496094 66.21875 39.871094 C 66.292969 40.25 66.332031 40.632812 66.332031 41.015625 Z M 66.332031 41.015625 " fill-opacity="1" fill-rule="nonzero"/><path fill="#000000" d="M 104.398438 76.171875 C 104.398438 69.726562 99.125 64.453125 92.683594 64.453125 L 69.261719 64.453125 C 62.820312 64.453125 57.546875 69.726562 57.546875 76.171875 L 57.546875 93.75 C 57.546875 100.195312 62.820312 105.46875 69.261719 105.46875 L 92.683594 105.46875 C 99.125 105.46875 104.398438 100.195312 104.398438 93.75 Z M 69.261719 93.75 L 69.261719 76.171875 L 92.683594 76.171875 L 92.683594 93.75 Z M 69.261719 93.75 " fill-opacity="1" fill-rule="nonzero"/><path fill="#000000" d="M 262.511719 87.890625 L 121.964844 87.890625 C 118.742188 87.890625 116.109375 90.527344 116.109375 93.75 C 116.109375 96.972656 118.742188 99.609375 121.964844 99.609375 L 262.511719 99.609375 C 265.730469 99.609375 268.367188 96.972656 268.367188 93.75 C 268.367188 90.527344 265.730469 87.890625 262.511719 87.890625 Z M 262.511719 87.890625 " fill-opacity="1" fill-rule="nonzero"/><path fill="#000000" d="M 104.398438 134.765625 C 104.398438 128.320312 99.125 123.046875 92.683594 123.046875 L 69.261719 123.046875 C 62.820312 123.046875 57.546875 128.320312 57.546875 134.765625 L 57.546875 152.34375 C 57.546875 158.789062 62.820312 164.0625 69.261719 164.0625 L 92.683594 164.0625 C 99.125 164.0625 104.398438 158.789062 104.398438 152.34375 Z M 69.261719 152.34375 L 69.261719 134.765625 L 92.683594 134.765625 L 92.683594 152.34375 Z M 69.261719 152.34375 " fill-opacity="1" fill-rule="nonzero"/><path fill="#000000" d="M 268.367188 152.34375 C 268.367188 149.121094 265.730469 146.484375 262.511719 146.484375 L 121.964844 146.484375 C 118.742188 146.484375 116.109375 149.121094 116.109375 152.34375 C 116.109375 155.566406 118.742188 158.203125 121.964844 158.203125 L 262.511719 158.203125 C 265.730469 158.203125 268.367188 155.566406 268.367188 152.34375 Z M 268.367188 152.34375 " fill-opacity="1" fill-rule="nonzero"/><path fill="#000000" d="M 104.398438 193.359375 C 104.398438 186.914062 99.125 181.640625 92.683594 181.640625 L 69.261719 181.640625 C 62.820312 181.640625 57.546875 186.914062 57.546875 193.359375 L 57.546875 210.9375 C 57.546875 217.382812 62.820312 222.65625 69.261719 222.65625 L 92.683594 222.65625 C 99.125 222.65625 104.398438 217.382812 104.398438 210.9375 Z M 69.261719 210.9375 L 69.261719 193.359375 L 92.683594 193.359375 L 92.683594 210.9375 Z M 69.261719 210.9375 " fill-opacity="1" fill-rule="nonzero"/><path fill="#000000" d="M 104.398438 251.953125 C 104.398438 245.507812 99.125 240.234375 92.683594 240.234375 L 69.261719 240.234375 C 62.820312 240.234375 57.546875 245.507812 57.546875 251.953125 L 57.546875 269.53125 C 57.546875 275.976562 62.820312 281.25 69.261719 281.25 L 92.683594 281.25 C 99.125 281.25 104.398438 275.976562 104.398438 269.53125 Z M 69.261719 269.53125 L 69.261719 251.953125 L 92.683594 251.953125 L 92.683594 269.53125 Z M 69.261719 269.53125 " fill-opacity="1" fill-rule="nonzero"/><path fill="#000000" d="M 69.261719 339.84375 L 92.683594 339.84375 C 99.125 339.84375 104.398438 334.570312 104.398438 328.125 L 104.398438 310.546875 C 104.398438 304.101562 99.125 298.828125 92.683594 298.828125 L 69.261719 298.828125 C 62.820312 298.828125 57.546875 304.101562 57.546875 310.546875 L 57.546875 328.125 C 57.546875 334.570312 62.820312 339.84375 69.261719 339.84375 Z M 69.261719 310.546875 L 92.683594 310.546875 L 92.683594 328.125 L 69.261719 328.125 Z M 69.261719 310.546875 " fill-opacity="1" fill-rule="nonzero"/><path fill="#000000" d="M 116.109375 269.53125 C 116.109375 272.753906 118.742188 275.390625 121.964844 275.390625 L 166.179688 275.390625 L 172.914062 263.671875 L 121.964844 263.671875 C 118.742188 263.671875 116.109375 266.308594 116.109375 269.53125 Z M 116.109375 269.53125 " fill-opacity="1" fill-rule="nonzero"/><path fill="#000000" d="M 234.402344 205.078125 L 121.964844 205.078125 C 118.742188 205.078125 116.109375 207.714844 116.109375 210.9375 C 116.109375 214.160156 118.742188 216.796875 121.964844 216.796875 L 221.8125 216.796875 Z M 234.402344 205.078125 " fill-opacity="1" fill-rule="nonzero"/><g clip-path="url(#0045fb79d1)"><path fill="#000000" d="M 291.789062 357.421875 C 291.789062 360.644531 289.15625 363.28125 285.933594 363.28125 L 39.980469 363.28125 C 36.757812 363.28125 34.125 360.644531 34.125 357.421875 L 34.125 17.578125 C 34.125 14.355469 36.757812 11.71875 39.980469 11.71875 L 285.933594 11.71875 C 289.15625 11.71875 291.789062 14.355469 291.789062 17.578125 L 291.789062 152.050781 L 301.453125 142.96875 C 302.039062 142.382812 302.625 141.796875 303.503906 141.503906 L 303.503906 17.578125 C 303.503906 7.910156 295.597656 0 285.933594 0 L 39.980469 0 C 30.316406 0 22.410156 7.910156 22.410156 17.578125 L 22.410156 357.421875 C 22.410156 367.089844 30.316406 375 39.980469 375 L 285.933594 375 C 295.597656 375 303.503906 367.089844 303.503906 357.421875 L 303.503906 243.164062 L 291.789062 254.003906 Z M 291.789062 357.421875 " fill-opacity="1" fill-rule="nonzero"/></g><path fill="#000000" d="M 345.957031 163.183594 C 345.957031 163.183594 337.46875 152.929688 337.46875 152.929688 C 330.734375 144.726562 318.144531 144.433594 310.53125 151.464844 C 310.53125 151.464844 185.503906 266.894531 185.503906 266.894531 C 184.917969 267.1875 184.625 267.773438 184.332031 268.359375 L 153.585938 322.265625 L 121.964844 322.265625 C 118.742188 322.265625 116.109375 324.902344 116.109375 328.125 C 116.109375 331.347656 118.742188 333.984375 121.964844 333.984375 L 262.511719 333.984375 C 265.730469 333.984375 268.367188 331.347656 268.367188 328.125 C 268.367188 324.902344 265.730469 322.265625 262.511719 322.265625 L 184.039062 322.265625 C 184.039062 322.265625 217.125 307.03125 217.125 307.03125 C 217.710938 306.738281 218.296875 306.445312 218.589844 305.859375 L 343.617188 190.429688 C 351.816406 183.398438 352.402344 171.09375 345.957031 163.183594 Z M 171.15625 315.234375 L 190.1875 281.542969 L 205.414062 299.707031 Z M 215.367188 293.261719 L 197.214844 271.875 L 293.546875 182.8125 L 311.699219 204.199219 Z M 336.003906 182.226562 L 320.484375 196.582031 L 302.332031 175.195312 C 302.332031 175.195312 318.144531 160.546875 318.144531 160.546875 C 321.070312 157.910156 325.753906 157.910156 328.390625 160.839844 L 336.882812 171.09375 C 339.515625 174.023438 339.222656 179.003906 336.003906 182.226562 Z M 336.003906 182.226562 " fill-opacity="1" fill-rule="nonzero"/></svg>