<svg xmlns="http://www.w3.org/2000/svg" xmlns:xlink="http://www.w3.org/1999/xlink" width="500" zoomAndPan="magnify" viewBox="0 0 375 374.999991" height="500" preserveAspectRatio="xMidYMid meet" version="1.0"><path fill="#000000" d="M 137.625 95.976562 L 235.554688 95.976562 C 238.597656 95.976562 241.089844 93.480469 241.089844 90.429688 C 241.089844 87.375 238.597656 84.878906 235.554688 84.878906 L 137.625 84.878906 C 134.578125 84.878906 132.085938 87.375 132.085938 90.429688 C 132.085938 93.480469 134.578125 95.976562 137.625 95.976562 Z M 137.625 340.746094 L 235.554688 340.746094 C 238.597656 340.746094 241.089844 338.25 241.089844 335.199219 C 241.089844 332.144531 238.597656 329.648438 235.554688 329.648438 L 137.625 329.648438 C 134.578125 329.648438 132.085938 332.144531 132.085938 335.199219 C 132.085938 338.25 134.578125 340.746094 137.625 340.746094 Z M 185.714844 4.261719 C 213.394531 4.261719 235.84375 26.761719 235.84375 54.5 C 235.84375 64.136719 233.132812 73.140625 228.433594 80.789062 L 142.992188 80.789062 C 138.292969 73.140625 135.582031 64.136719 135.582031 54.5 C 135.582031 26.761719 158.03125 4.261719 185.714844 4.261719 Z M 228.851562 344.253906 C 220.621094 353.296875 204.519531 359.441406 186.003906 359.441406 C 167.492188 359.441406 151.386719 353.296875 143.160156 344.253906 Z M 234.847656 100.238281 L 234.847656 325.386719 L 235.550781 325.386719 C 240.9375 325.386719 245.34375 329.800781 245.34375 335.199219 C 245.34375 340.59375 240.9375 345.007812 235.550781 345.007812 L 233.996094 345.007812 C 230.304688 348.90625 226.898438 352.027344 222.304688 354.800781 C 218.269531 357.085938 214.125 358.835938 209.714844 360.253906 C 205.308594 361.675781 201.292969 362.410156 196.945312 363.003906 L 196.953125 363.164062 C 196.988281 365.125 196.5625 366.886719 195.671875 368.628906 C 194.78125 370.371094 193.703125 371.359375 192.261719 372.390625 C 190.402344 373.582031 188.5 374.160156 186.296875 374.21875 C 185.011719 374.1875 183.847656 373.984375 182.628906 373.570312 C 180.804688 372.851562 179.351562 371.816406 178.066406 370.332031 C 176.417969 368.226562 175.59375 365.855469 175.636719 363.175781 L 175.640625 363.078125 L 175.351562 363.042969 C 170.902344 362.433594 166.597656 361.535156 162.292969 360.257812 C 157.414062 358.683594 152.863281 356.710938 148.46875 354.058594 C 144.078125 351.402344 141.339844 348.523438 138.011719 345.007812 L 137.621094 345.007812 C 132.238281 345.007812 127.832031 340.59375 127.832031 335.199219 C 127.832031 329.800781 132.238281 325.386719 137.621094 325.386719 L 137.742188 325.386719 L 137.742188 100.238281 L 137.621094 100.238281 C 132.238281 100.238281 127.832031 95.824219 127.832031 90.429688 C 127.832031 85.03125 132.238281 80.617188 137.621094 80.617188 L 137.976562 80.617188 C 133.609375 72.472656 131.410156 63.710938 131.328125 54.46875 C 131.589844 44.160156 134.078125 35.179688 139.207031 26.242188 C 144.082031 18.617188 149.902344 12.785156 157.511719 7.894531 C 166.445312 2.746094 175.414062 0.261719 185.714844 0 C 196.941406 0.285156 206.664062 3.238281 216.121094 9.3125 C 224.246094 15.105469 230.183594 21.976562 234.730469 30.875 C 238.199219 38.5625 239.882812 46.03125 240.097656 54.46875 C 240.050781 59.621094 239.367188 64.601562 237.988281 69.570312 C 236.851562 73.398438 235.335938 77.097656 233.449219 80.617188 L 235.550781 80.617188 C 240.9375 80.617188 245.34375 85.03125 245.34375 90.429688 C 245.34375 95.824219 240.9375 100.238281 235.550781 100.238281 Z M 199.339844 321.46875 L 229.429688 308.289062 L 229.429688 276.742188 L 143.160156 314.535156 L 143.160156 321.46875 Z M 143.160156 264.878906 L 229.429688 227.085938 L 229.429688 193.789062 L 143.160156 231.582031 Z M 143.160156 181.925781 L 229.429688 144.132812 L 229.429688 106.164062 L 143.160156 143.953125 Z M 192.480469 361.832031 C 192.628906 362.375 192.707031 362.941406 192.707031 363.53125 C 192.707031 367.078125 189.835938 369.957031 186.296875 369.957031 C 182.753906 369.957031 179.882812 367.078125 179.882812 363.53125 C 179.882812 362.957031 179.960938 362.398438 180.101562 361.867188 L 186.003906 362.023438 Z M 182.796875 10.6875 C 156.34375 15.648438 138.695312 46.015625 148.976562 72.890625 C 154.191406 63.671875 159.546875 59.695312 169.390625 59.757812 C 161.953125 38.589844 168.148438 22.929688 182.796875 10.6875 Z M 182.796875 10.6875 " fill-opacity="1" fill-rule="evenodd"/></svg>