<svg xmlns="http://www.w3.org/2000/svg" xmlns:xlink="http://www.w3.org/1999/xlink" width="500" zoomAndPan="magnify" viewBox="0 0 375 374.999991" height="500" preserveAspectRatio="xMidYMid meet" version="1.0"><path fill="#000000" d="M 156.746094 41.121094 C 226.777344 32.222656 285.933594 91.378906 277.035156 161.410156 C 270.960938 209.140625 232.421875 247.6875 184.6875 253.753906 C 114.667969 262.648438 55.507812 203.496094 64.410156 133.46875 C 70.476562 85.734375 109.015625 47.195312 156.746094 41.121094 Z M 347.589844 342.371094 L 270.878906 244.132812 C 298.347656 215.691406 313.859375 175.628906 309.1875 132.125 C 302.246094 67.453125 249.796875 15.386719 185.085938 8.875 C 97.082031 0.015625 23.382812 73.648438 32.136719 161.625 C 38.761719 228.257812 93.65625 281.535156 160.441406 286.359375 C 190.121094 288.507812 218.019531 281.273438 241.511719 267.351562 L 318.082031 365.40625 C 324.484375 373.597656 336.316406 375.011719 344.457031 368.570312 C 349.121094 364.867188 351.558594 359.398438 351.558594 353.875 C 351.558594 349.84375 350.261719 345.789062 347.589844 342.371094 " fill-opacity="1" fill-rule="nonzero"/><path fill="#000000" d="M 115.894531 132.4375 L 115.894531 228.417969 C 110.820312 224.972656 106.027344 221.019531 101.585938 216.570312 C 96.421875 211.410156 91.921875 205.78125 88.097656 199.78125 L 88.097656 132.4375 C 88.097656 131.988281 88.496094 131.617188 88.996094 131.617188 L 114.984375 131.617188 C 115.492188 131.617188 115.894531 131.988281 115.894531 132.4375 " fill-opacity="1" fill-rule="nonzero"/><path fill="#000000" d="M 161.746094 159.535156 L 161.746094 244.835938 C 152.140625 243.960938 142.789062 241.679688 133.953125 238.089844 L 133.953125 159.535156 C 133.953125 159.085938 134.351562 158.714844 134.859375 158.714844 L 160.847656 158.714844 C 161.347656 158.714844 161.746094 159.085938 161.746094 159.535156 " fill-opacity="1" fill-rule="nonzero"/><path fill="#000000" d="M 207.601562 116.09375 L 207.601562 238.046875 C 199.96875 241.195312 191.886719 243.378906 183.503906 244.445312 C 182.273438 244.597656 181.03125 244.734375 179.796875 244.84375 L 179.796875 116.09375 C 179.796875 115.640625 180.210938 115.28125 180.703125 115.28125 L 206.699219 115.28125 C 207.195312 115.28125 207.601562 115.640625 207.601562 116.09375 " fill-opacity="1" fill-rule="nonzero"/><path fill="#000000" d="M 253.34375 99.324219 L 253.34375 199.652344 C 249.441406 205.746094 244.890625 211.40625 239.785156 216.503906 C 235.417969 220.878906 230.648438 224.839844 225.535156 228.339844 L 225.535156 99.324219 C 225.535156 98.867188 225.949219 98.503906 226.441406 98.503906 L 252.429688 98.503906 C 252.929688 98.503906 253.34375 98.867188 253.34375 99.324219 " fill-opacity="1" fill-rule="nonzero"/></svg>